<svg width="14" height="14" viewBox="0 0 14 14" fill="none" xmlns="http://www.w3.org/2000/svg">
<path d="M12.334 3.66732V12.334C12.334 12.6876 12.1935 13.0267 11.9435 13.2768C11.6934 13.5268 11.3543 13.6673 11.0007 13.6673H3.00065C2.64703 13.6673 2.30789 13.5268 2.05784 13.2768C1.80779 13.0267 1.66732 12.6876 1.66732 12.334V3.66732H0.333984V2.33398H13.6673V3.66732H12.334ZM3.00065 3.66732V12.334H11.0007V3.66732H3.00065ZM6.33398 5.00065H7.66732V6.33398H6.33398V5.00065ZM6.33398 7.00065H7.66732V8.33398H6.33398V7.00065ZM6.33398 9.00065H7.66732V10.334H6.33398V9.00065ZM3.66732 0.333984H10.334V1.66732H3.66732V0.333984Z" fill="#1E1E1E" fill-opacity="0.7"/>
</svg>
